<svg width="50" height="50" viewBox="0 0 24 24" fill="none" xmlns="http://www.w3.org/2000/svg" xmlns:xlink="http://www.w3.org/1999/xlink">
	<desc>
			Created with Pixso.
	</desc>
	<defs/>
	<path id="Vector" d="M3 13L9 13L9 11L3 11L3 1.84619C3.00002 1.75928 3.02267 1.67383 3.06573 1.59814C3.1088 1.52295 3.17078 1.45996 3.24557 1.41553C3.32037 1.37158 3.4054 1.34766 3.49228 1.34619C3.57915 1.34473 3.66487 1.36621 3.741 1.4082L22.203 11.562C22.2814 11.6055 22.3468 11.6685 22.3923 11.7456C22.4378 11.8228 22.4619 11.9106 22.4619 12C22.4619 12.0894 22.4378 12.1772 22.3923 12.2544C22.3468 12.3315 22.2814 12.395 22.203 12.438L3.741 22.5923C3.66487 22.6338 3.57915 22.6553 3.49228 22.6538C3.4054 22.6528 3.32037 22.6284 3.24557 22.5845C3.17078 22.54 3.1088 22.4775 3.06573 22.4019C3.02267 22.3262 3.00002 22.2412 3 22.1543L3 13Z" fill="#FFFFFF" fill-opacity="1.000000" fill-rule="nonzero"/>
</svg>
