<svg width="32.000000" height="32.000000" viewBox="0 0 32 32" fill="none" xmlns="http://www.w3.org/2000/svg" xmlns:xlink="http://www.w3.org/1999/xlink">
	<desc>
			Created with Pixso.
	</desc>
	<defs>
		<clipPath id="clip4492_1613">
			<rect id="Frame" width="16.000000" height="14.000000" transform="translate(8.000000 9.000000)" fill="white" fill-opacity="0"/>
		</clipPath>
		<clipPath id="clip4492_1611">
			<rect id="Frame" width="32.000000" height="32.000000" fill="white" fill-opacity="0"/>
		</clipPath>
	</defs>
	<g clip-path="url(#clip4492_1611)">
		<rect id="Rectangle" rx="16.000000" width="32.000000" height="32.000000" fill="#EFF5FB" fill-opacity="1.000000"/>
		<g clip-path="url(#clip4492_1613)">
			<path id="Vector" d="M8.28261 15.7695L11.9693 17.1641L13.3963 21.8145C13.4876 22.1123 13.847 22.2227 14.0856 22.0249L16.1406 20.3271C16.3561 20.1494 16.6629 20.1401 16.888 20.3062L20.5946 23.0332C20.8498 23.2212 21.2113 23.0796 21.2753 22.7671L23.9906 9.53076C24.0604 9.18945 23.7295 8.90479 23.4087 9.03027L8.27829 14.9453C7.9049 15.0913 7.90815 15.627 8.28261 15.7695ZM13.1663 16.4214L20.3716 11.9243C20.5011 11.8438 20.6343 12.021 20.5231 12.1255L14.5767 17.7271C14.3677 17.9243 14.2329 18.1885 14.1947 18.4746L13.9921 19.9961C13.9653 20.1992 13.6837 20.2192 13.6284 20.0229L12.8494 17.2485C12.7602 16.9321 12.8902 16.5942 13.1663 16.4214Z" fill="#333333" fill-opacity="1.000000" fill-rule="nonzero"/>
		</g>
	</g>
</svg>
