<svg width="51.000000" height="36.000000" viewBox="0 0 51 36" fill="none" xmlns="http://www.w3.org/2000/svg" xmlns:xlink="http://www.w3.org/1999/xlink">
	<desc>
			Created with Pixso.
	</desc>
	<defs>
		<clipPath id="clip4492_1561">
			<rect id="Frame" width="51.000000" height="36.000000" fill="white" fill-opacity="0"/>
		</clipPath>
	</defs>
	<rect id="Frame" width="51.000000" height="36.000000" fill="#FFFFFF" fill-opacity="0"/>
	<g clip-path="url(#clip4492_1561)">
		<path id="Vector" d="M13.3303 1.28027C13.3303 1.11963 13.2954 0.960449 13.228 0.814453C13.1605 0.668945 13.0621 0.539551 12.9399 0.436523C12.6953 0.205078 12.3718 0.078125 12.0367 0.081543C11.8039 0.0776367 11.5747 0.140625 11.3757 0.263184C11.1563 0.404297 10.9897 0.614746 10.902 0.862305L6.73792 10.2114L2.56342 0.84375C2.47192 0.61084 2.31116 0.412598 2.10321 0.275879C1.89526 0.139648 1.65045 0.0712891 1.40265 0.081543C1.04761 0.0795898 0.703552 0.205566 0.431885 0.436523C0.296448 0.538086 0.186707 0.67041 0.111572 0.823242C0.036499 0.975586 -0.00177002 1.14404 -0.00012207 1.31445C-0.00158691 1.48193 0.0349121 1.64746 0.106567 1.79834L5.31171 12.9771L3.45349 16.9839C3.37524 17.1553 3.32935 17.3398 3.31818 17.5283C3.3158 17.686 3.35016 17.8423 3.4184 17.9844C3.48663 18.126 3.58691 18.25 3.71112 18.3457C3.95593 18.5557 4.26721 18.6694 4.5882 18.6665C4.82373 18.6655 5.05371 18.5942 5.24927 18.4614C5.46271 18.3198 5.62872 18.1162 5.72552 17.8779L13.2235 1.79834C13.2945 1.63525 13.3308 1.4585 13.3303 1.28027Z" fill="#2963A3" fill-opacity="1.000000" fill-rule="nonzero"/>
		<path id="Vector" d="M39.5071 12.5117C39.4991 12.6807 39.5262 12.8491 39.5867 13.0068C39.6473 13.1646 39.7398 13.3076 39.8584 13.4268C39.9819 13.5415 40.1266 13.6309 40.2843 13.689C40.442 13.7471 40.6094 13.7734 40.7771 13.7661C41.1427 13.7817 41.5001 13.6538 41.7739 13.4082C41.9001 13.2915 42 13.1484 42.0669 12.9893C42.1338 12.8301 42.1661 12.6582 42.1617 12.4854L42.1617 1.39062C42.1707 1.21094 42.1431 1.03076 42.0804 0.862305C42.0177 0.693359 41.9213 0.539551 41.7973 0.410156C41.5162 0.179199 41.1644 0.0541992 40.8021 0.0566406C40.4398 0.059082 40.0897 0.188965 39.8116 0.42334C39.6855 0.549316 39.5869 0.700195 39.522 0.866699C39.457 1.03369 39.4271 1.21191 39.4342 1.39062L39.4342 7.79785C39.4342 8.94043 39.1149 9.8584 38.4764 10.5503C38.1492 10.897 37.7522 11.1689 37.3123 11.3477C36.8723 11.5264 36.3996 11.6074 35.9259 11.5864C35.0289 11.5864 34.3635 11.332 33.9297 10.8237C33.496 10.3154 33.28 9.52686 33.2817 8.45801L33.2817 1.39062C33.2908 1.21094 33.2631 1.03076 33.2004 0.862305C33.1377 0.693359 33.0414 0.539551 32.9174 0.410156C32.7838 0.287109 32.6273 0.192383 32.457 0.131348C32.2867 0.0708008 32.1061 0.0444336 31.9258 0.0551758C31.7422 0.0444336 31.5583 0.0698242 31.3846 0.130859C31.2108 0.191895 31.0507 0.286621 30.9134 0.410156C30.7881 0.538574 30.691 0.692383 30.6283 0.861328C30.5656 1.03027 30.5385 1.21094 30.549 1.39062L30.549 8.48926C30.549 12.0508 32.1505 13.8315 35.3533 13.8315C36.2042 13.8433 37.044 13.6372 37.7946 13.2324C38.5229 12.833 39.1186 12.2256 39.5071 11.4863L39.5071 12.5117Z" fill="#2963A3" fill-opacity="1.000000" fill-rule="nonzero"/>
		<path id="Vector" d="M15.3552 33.8916L14.5979 33.8364C13.8796 33.7822 13.3443 33.5552 12.9921 33.1553C12.6433 32.7559 12.4716 32.1274 12.4716 31.2729L12.4716 24.6768L15.134 24.6768C15.4484 24.7007 15.7605 24.6069 16.011 24.4136C16.1172 24.3135 16.2001 24.1909 16.2537 24.0547C16.3073 23.9185 16.3301 23.7715 16.3208 23.625C16.3291 23.479 16.3057 23.3325 16.2522 23.1963C16.1987 23.0601 16.1164 22.937 16.011 22.8364C15.7648 22.6328 15.4517 22.5303 15.134 22.5498L12.4612 22.5498L12.4612 19.7417C12.4713 19.5605 12.4428 19.3794 12.3777 19.2104C12.3126 19.041 12.2124 18.8882 12.0838 18.7612C11.8093 18.5151 11.4509 18.3872 11.0844 18.4038C10.9053 18.394 10.7262 18.4209 10.5573 18.4814C10.3884 18.5425 10.2332 18.6367 10.1006 18.7588C9.9754 18.8872 9.8783 19.041 9.81555 19.21C9.75281 19.3789 9.72577 19.5591 9.73627 19.7393L9.73627 22.5498L8.11749 22.5498C7.79974 22.5298 7.48639 22.6323 7.24042 22.8364C7.13416 22.9365 7.05109 23.0591 6.99713 23.1953C6.94318 23.332 6.91956 23.4785 6.9281 23.625C6.9281 24.3262 7.32452 24.6768 8.11749 24.6768L9.73627 24.6768L9.73627 31.084C9.73627 32.627 10.0954 33.7969 10.8163 34.5859C11.5372 35.3745 12.6225 35.8267 14.08 35.937L14.8087 35.9897C15.2322 36.0513 15.6641 35.9702 16.0371 35.7583C16.1724 35.6685 16.2821 35.5449 16.3556 35.3989C16.4291 35.2534 16.4637 35.0908 16.4561 34.9277C16.4635 34.7954 16.4443 34.6631 16.3995 34.5391C16.3548 34.4146 16.2855 34.3008 16.1959 34.2046C15.9591 34.0063 15.6625 33.896 15.3552 33.8916Z" fill="#2963A3" fill-opacity="1.000000" fill-rule="nonzero"/>
		<path id="Vector" d="M36.0118 16.4976C35.6534 16.4854 35.3032 16.6069 35.0281 16.8394C34.8939 16.9653 34.7893 17.1196 34.7217 17.2915C34.6542 17.4639 34.6255 17.6484 34.6377 17.833L34.6377 34.6831C34.6246 34.8657 34.653 35.0488 34.7206 35.2188C34.7883 35.3887 34.8934 35.541 35.0281 35.6636C35.3068 35.8877 35.6559 36.0034 36.0118 35.9897C36.3648 36.0049 36.7111 35.8887 36.9852 35.6636C37.116 35.5386 37.2176 35.3857 37.2829 35.2163C37.3481 35.0464 37.3754 34.8643 37.3625 34.6831L37.3625 17.833C37.3746 17.6499 37.3471 17.4658 37.2819 17.2944C37.2168 17.123 37.1155 16.9678 36.9852 16.8394C36.7148 16.606 36.3672 16.4839 36.0118 16.4976Z" fill="#2963A3" fill-opacity="1.000000" fill-rule="nonzero"/>
		<path id="Vector" d="M50.5132 33.6997L45.2249 28.9829L50.0292 24.54C50.1685 24.4229 50.2815 24.2773 50.3609 24.1128C50.4403 23.9482 50.4843 23.7686 50.4898 23.5854C50.4813 23.2485 50.3446 22.9272 50.1082 22.689C49.8718 22.4507 49.5537 22.3135 49.2198 22.3052C48.8833 22.3271 48.5665 22.4731 48.3297 22.7153L42.1772 28.5205L42.1772 17.833C42.1898 17.6499 42.1625 17.4658 42.0974 17.2939C42.0322 17.1226 41.9306 16.9673 41.7999 16.8394C41.5305 16.606 41.1838 16.4839 40.8291 16.4976C40.4699 16.4854 40.1188 16.6069 39.8427 16.8394C39.7086 16.9653 39.6039 17.1196 39.5364 17.292C39.4689 17.4639 39.4401 17.6484 39.4523 17.833L39.4523 34.6592C39.4401 34.8442 39.4688 35.0298 39.5363 35.2021C39.6039 35.3745 39.7085 35.5293 39.8427 35.6558C40.1191 35.8872 40.4702 36.0078 40.8291 35.9951C41.1834 36.0093 41.5301 35.8882 41.7999 35.6558C41.9307 35.5273 42.0322 35.3716 42.0974 35.1997C42.1626 35.0273 42.1898 34.8433 42.1772 34.6592L42.1772 29.6113L48.897 35.6084C49.1414 35.853 49.4717 35.9902 49.8158 35.9897C49.9739 35.9902 50.1305 35.957 50.2747 35.8911C50.4188 35.8252 50.5472 35.729 50.6512 35.6084C50.8845 35.3667 51.0136 35.0415 51.0104 34.7041C51.0096 34.5093 50.9644 34.3174 50.8782 34.1431C50.792 33.9688 50.6671 33.8169 50.5132 33.6997Z" fill="#2963A3" fill-opacity="1.000000" fill-rule="nonzero"/>
		<path id="Vector" d="M15.3342 13.8213L22.3299 13.8213C23.5217 13.8472 24.6993 13.5562 25.7445 12.9775C26.7188 12.417 27.5075 11.5781 28.0113 10.5664C28.5602 9.43408 28.8324 8.18555 28.8051 6.92529C28.8356 5.65674 28.5633 4.3999 28.0113 3.26025C27.5091 2.24609 26.7202 1.40527 25.7445 0.844238C24.6993 0.265137 23.5217 -0.0258789 22.3299 0L20.1203 0C18.9294 -0.0258789 17.7526 0.265137 16.7084 0.844238C15.7314 1.40332 14.9421 2.24463 14.4415 3.26025C13.8887 4.39941 13.6155 5.65674 13.6451 6.92529L13.6451 10.7793C13.6451 13.001 14.2073 13.8213 15.3342 13.8213ZM17.3694 3.41797C18.0183 2.61182 18.9353 2.2085 20.1203 2.2085L22.3299 2.2085C23.5167 2.2085 24.4345 2.61328 25.0834 3.42334C25.7323 4.23291 26.0559 5.40039 26.0542 6.92529C26.0542 8.46924 25.7349 9.64111 25.0964 10.4404C24.4579 11.2393 23.5358 11.6401 22.3299 11.6416L16.4299 11.6416C16.4299 11.6416 16.3961 8.46826 16.3961 6.92529C16.3961 5.38184 16.7214 4.23047 17.3694 3.41797Z" fill="#2963A3" fill-opacity="1.000000" fill-rule="nonzero"/>
		<path id="Vector" d="M29.6094 23.0229C28.5657 22.4424 27.3888 22.1504 26.1975 22.1763L23.9879 22.1763C22.796 22.1514 21.6184 22.4434 20.5734 23.0229C19.5977 23.583 18.8087 24.4229 18.3065 25.4365C17.7605 26.5776 17.4927 27.8345 17.5257 29.1016C17.4953 30.3608 17.763 31.6089 18.3065 32.7427C18.8096 33.7549 19.5984 34.5942 20.5734 35.1538C21.6187 35.7324 22.7962 36.0234 23.9879 35.9976L30.9836 35.9976C32.1132 35.9976 32.6727 35.1772 32.6727 32.9478L32.6727 29.1016C32.7029 27.833 32.4297 26.5757 31.8763 25.4365C31.3756 24.4219 30.5862 23.5815 29.6094 23.0229ZM29.8879 33.8179L23.9879 33.8179C22.7855 33.8179 21.8633 33.4185 21.2214 32.6191C20.5794 31.8198 20.261 30.6475 20.2662 29.1016C20.2662 27.5732 20.5898 26.4058 21.237 25.5996C21.8842 24.7935 22.8011 24.3882 23.9879 24.3848L26.1975 24.3848C27.3843 24.3848 28.3021 24.7896 28.951 25.5996C29.5999 26.4092 29.9261 27.5767 29.9296 29.1016C29.9296 30.6445 29.8879 33.8179 29.8879 33.8179Z" fill="#2963A3" fill-opacity="1.000000" fill-rule="nonzero"/>
	</g>
</svg>
