<svg width="32.000000" height="32.000000" viewBox="0 0 32 32" fill="none" xmlns="http://www.w3.org/2000/svg" xmlns:xlink="http://www.w3.org/1999/xlink">
	<desc>
			Created with Pixso.
	</desc>
	<defs>
		<clipPath id="clip4492_1609">
			<rect id="Frame" width="20.000000" height="12.000000" transform="translate(6.000000 10.000000)" fill="white" fill-opacity="0"/>
		</clipPath>
		<clipPath id="clip4492_1607">
			<rect id="Frame" width="32.000000" height="32.000000" fill="white" fill-opacity="0"/>
		</clipPath>
	</defs>
	<g clip-path="url(#clip4492_1607)">
		<rect id="Rectangle" rx="16.000000" width="32.000000" height="32.000000" fill="#EFF5FB" fill-opacity="1.000000"/>
		<g clip-path="url(#clip4492_1609)">
			<path id="Vector" d="M25.8217 20.541C25.768 20.4478 25.4355 19.6997 23.8353 18.1616C22.1602 16.5508 22.3852 16.8125 24.4029 14.0278C25.6317 12.3315 26.123 11.2959 25.9692 10.8535C25.823 10.4312 24.9192 10.5425 24.9192 10.5425L21.9139 10.5605C21.9139 10.5605 21.6914 10.5298 21.5252 10.6318C21.3639 10.7329 21.2602 10.9658 21.2602 10.9658C21.2602 10.9658 20.7839 12.2788 20.1488 13.3945C18.81 15.7495 18.2737 15.874 18.0549 15.7275C17.5461 15.3872 17.6736 14.3579 17.6736 13.6279C17.6736 11.3452 18.0074 10.3936 17.0223 10.1475C16.6948 10.0659 16.4548 10.0117 15.6185 10.0029C14.5459 9.99121 13.6371 10.0063 13.1233 10.2666C12.7808 10.4404 12.517 10.8271 12.6783 10.8496C12.877 10.8765 13.3271 10.9751 13.5658 11.3115C13.8746 11.7451 13.8634 12.7217 13.8634 12.7217C13.8634 12.7217 14.0409 15.4077 13.4496 15.7417C13.0433 15.9712 12.487 15.5034 11.2932 13.3662C10.6819 12.272 10.2193 11.0615 10.2193 11.0615C10.2193 11.0615 10.1306 10.8364 9.97182 10.7158C9.7793 10.5698 9.50928 10.5229 9.50928 10.5229L6.65158 10.5415C6.65158 10.5415 6.22279 10.5542 6.06528 10.7471C5.92527 10.9194 6.05403 11.2739 6.05403 11.2739C6.05403 11.2739 8.2917 16.6948 10.8244 19.4277C13.1483 21.9326 15.786 21.7686 15.786 21.7686L16.9811 21.7686C16.9811 21.7686 17.3424 21.7271 17.5261 21.521C17.6961 21.332 17.6899 20.9775 17.6899 20.9775C17.6899 20.9775 17.6661 19.3164 18.4112 19.0718C19.145 18.8311 20.0876 20.6772 21.0864 21.3877C21.8414 21.9248 22.4152 21.8071 22.4152 21.8071L25.0867 21.7686C25.0867 21.7686 26.4843 21.6792 25.8217 20.541Z" fill="#333333" fill-opacity="1.000000" fill-rule="nonzero"/>
		</g>
	</g>
</svg>
