<svg width="77" height="32" viewBox="0 0 77 32" fill="none" xmlns="http://www.w3.org/2000/svg">
<path d="M16.484 12.74H13.236V21H11.43V12.74H8.196V11.2H16.484V12.74ZM21.8239 13.44C22.5519 13.44 23.2006 13.5987 23.7699 13.916C24.3486 14.2333 24.8012 14.6813 25.1279 15.26C25.4546 15.8387 25.6179 16.506 25.6179 17.262C25.6179 18.018 25.4546 18.69 25.1279 19.278C24.8012 19.8567 24.3486 20.3047 23.7699 20.622C23.2006 20.9393 22.5519 21.098 21.8239 21.098C20.8159 21.098 20.0179 20.762 19.4299 20.09V23.716H17.6799V13.524H19.3459V14.504C19.6352 14.1493 19.9899 13.8833 20.4099 13.706C20.8392 13.5287 21.3106 13.44 21.8239 13.44ZM21.6279 19.6C22.2719 19.6 22.7992 19.3853 23.2099 18.956C23.6299 18.5267 23.8399 17.962 23.8399 17.262C23.8399 16.562 23.6299 15.9973 23.2099 15.568C22.7992 15.1387 22.2719 14.924 21.6279 14.924C21.2079 14.924 20.8299 15.022 20.4939 15.218C20.1579 15.4047 19.8919 15.6753 19.6959 16.03C19.4999 16.3847 19.4019 16.7953 19.4019 17.262C19.4019 17.7287 19.4999 18.1393 19.6959 18.494C19.8919 18.8487 20.1579 19.124 20.4939 19.32C20.8299 19.5067 21.2079 19.6 21.6279 19.6ZM34.3596 17.304C34.3596 17.4253 34.3503 17.598 34.3316 17.822H28.4656C28.5683 18.3727 28.8343 18.8113 29.2636 19.138C29.7023 19.4553 30.2436 19.614 30.8876 19.614C31.7089 19.614 32.3856 19.3433 32.9176 18.802L33.8556 19.88C33.5196 20.2813 33.0949 20.5847 32.5816 20.79C32.0683 20.9953 31.4896 21.098 30.8456 21.098C30.0243 21.098 29.3009 20.9347 28.6756 20.608C28.0503 20.2813 27.5649 19.8287 27.2196 19.25C26.8836 18.662 26.7156 17.9993 26.7156 17.262C26.7156 16.534 26.8789 15.8807 27.2056 15.302C27.5416 14.714 28.0036 14.2567 28.5916 13.93C29.1796 13.6033 29.8423 13.44 30.5796 13.44C31.3076 13.44 31.9563 13.6033 32.5256 13.93C33.1043 14.2473 33.5523 14.7 33.8696 15.288C34.1963 15.8667 34.3596 16.5387 34.3596 17.304ZM30.5796 14.84C30.0196 14.84 29.5436 15.008 29.1516 15.344C28.7689 15.6707 28.5356 16.1093 28.4516 16.66H32.6936C32.6189 16.1187 32.3903 15.68 32.0076 15.344C31.6249 15.008 31.1489 14.84 30.5796 14.84ZM41.6917 17.108C42.6157 17.388 43.0777 17.9853 43.0777 18.9C43.0777 19.572 42.8257 20.09 42.3217 20.454C41.8177 20.818 41.071 21 40.0817 21H36.2737V13.524H39.9277C40.8423 13.524 41.5563 13.692 42.0697 14.028C42.583 14.364 42.8397 14.84 42.8397 15.456C42.8397 15.8387 42.737 16.17 42.5317 16.45C42.3357 16.73 42.0557 16.9493 41.6917 17.108ZM37.9397 16.646H39.7737C40.679 16.646 41.1317 16.3333 41.1317 15.708C41.1317 15.1013 40.679 14.798 39.7737 14.798H37.9397V16.646ZM39.9417 19.726C40.903 19.726 41.3837 19.4133 41.3837 18.788C41.3837 18.4613 41.2717 18.2187 41.0477 18.06C40.8237 17.892 40.4737 17.808 39.9977 17.808H37.9397V19.726H39.9417ZM48.2736 21.098C47.5176 21.098 46.8363 20.9347 46.2296 20.608C45.623 20.2813 45.147 19.8287 44.8016 19.25C44.4656 18.662 44.2976 17.9993 44.2976 17.262C44.2976 16.5247 44.4656 15.8667 44.8016 15.288C45.147 14.7093 45.623 14.2567 46.2296 13.93C46.8363 13.6033 47.5176 13.44 48.2736 13.44C49.039 13.44 49.725 13.6033 50.3316 13.93C50.9383 14.2567 51.4096 14.7093 51.7456 15.288C52.091 15.8667 52.2636 16.5247 52.2636 17.262C52.2636 17.9993 52.091 18.662 51.7456 19.25C51.4096 19.8287 50.9383 20.2813 50.3316 20.608C49.725 20.9347 49.039 21.098 48.2736 21.098ZM48.2736 19.6C48.9176 19.6 49.4496 19.3853 49.8696 18.956C50.2896 18.5267 50.4996 17.962 50.4996 17.262C50.4996 16.562 50.2896 15.9973 49.8696 15.568C49.4496 15.1387 48.9176 14.924 48.2736 14.924C47.6296 14.924 47.0976 15.1387 46.6776 15.568C46.267 15.9973 46.0616 16.562 46.0616 17.262C46.0616 17.962 46.267 18.5267 46.6776 18.956C47.0976 19.3853 47.6296 19.6 48.2736 19.6ZM59.7324 15.008H55.7424V21H53.9924V13.524H59.7324V15.008ZM63.7921 13.44C64.8934 13.44 65.7334 13.706 66.3121 14.238C66.9001 14.7607 67.1941 15.554 67.1941 16.618V21H65.5421V20.09C65.3274 20.4167 65.0194 20.6687 64.6181 20.846C64.2261 21.014 63.7501 21.098 63.1901 21.098C62.6301 21.098 62.1401 21.0047 61.7201 20.818C61.3001 20.622 60.9734 20.356 60.7401 20.02C60.5161 19.6747 60.4041 19.2873 60.4041 18.858C60.4041 18.186 60.6514 17.6493 61.1461 17.248C61.6501 16.8373 62.4387 16.632 63.5121 16.632H65.4441V16.52C65.4441 15.9973 65.2854 15.596 64.9681 15.316C64.6601 15.036 64.1981 14.896 63.5821 14.896C63.1621 14.896 62.7467 14.9613 62.3361 15.092C61.9347 15.2227 61.5941 15.4047 61.3141 15.638L60.6281 14.364C61.0201 14.0653 61.4914 13.8367 62.0421 13.678C62.5927 13.5193 63.1761 13.44 63.7921 13.44ZM63.5541 19.824C63.9927 19.824 64.3801 19.726 64.7161 19.53C65.0614 19.3247 65.3041 19.0353 65.4441 18.662V17.794H63.6381C62.6301 17.794 62.1261 18.1253 62.1261 18.788C62.1261 19.1053 62.2521 19.3573 62.5041 19.544C62.7561 19.7307 63.1061 19.824 63.5541 19.824Z" fill="#333333"/>
<rect x="0.5" y="0.5" width="76" height="31" rx="15.5" stroke="#C1C5CD"/>
</svg>
