<svg width="112" height="32" viewBox="0 0 112 32" fill="none" xmlns="http://www.w3.org/2000/svg">
<path d="M17.786 11.2L13.53 19.11C13.1567 19.81 12.7087 20.3373 12.186 20.692C11.6727 21.0373 11.1127 21.21 10.506 21.21C10.0207 21.21 9.54 21.1073 9.064 20.902L9.512 19.474C9.89467 19.5953 10.212 19.656 10.464 19.656C11.052 19.656 11.5373 19.3527 11.92 18.746L12.074 18.508L8.168 11.2H10.114L13.012 16.954L15.994 11.2H17.786ZM25.7366 13.524V21H24.0006V15.008H20.3186V21H18.5686V13.524H25.7366ZM32.2419 13.44C32.9699 13.44 33.6185 13.5987 34.1879 13.916C34.7665 14.2333 35.2192 14.6813 35.5459 15.26C35.8725 15.8387 36.0359 16.506 36.0359 17.262C36.0359 18.018 35.8725 18.69 35.5459 19.278C35.2192 19.8567 34.7665 20.3047 34.1879 20.622C33.6185 20.9393 32.9699 21.098 32.2419 21.098C31.2339 21.098 30.4359 20.762 29.8479 20.09V23.716H28.0979V13.524H29.7639V14.504C30.0532 14.1493 30.4079 13.8833 30.8279 13.706C31.2572 13.5287 31.7285 13.44 32.2419 13.44ZM32.0459 19.6C32.6899 19.6 33.2172 19.3853 33.6279 18.956C34.0479 18.5267 34.2579 17.962 34.2579 17.262C34.2579 16.562 34.0479 15.9973 33.6279 15.568C33.2172 15.1387 32.6899 14.924 32.0459 14.924C31.6259 14.924 31.2479 15.022 30.9119 15.218C30.5759 15.4047 30.3099 15.6753 30.1139 16.03C29.9179 16.3847 29.8199 16.7953 29.8199 17.262C29.8199 17.7287 29.9179 18.1393 30.1139 18.494C30.3099 18.8487 30.5759 19.124 30.9119 19.32C31.2479 19.5067 31.6259 19.6 32.0459 19.6ZM40.4679 13.44C41.5692 13.44 42.4092 13.706 42.9879 14.238C43.5759 14.7607 43.8699 15.554 43.8699 16.618V21H42.2179V20.09C42.0032 20.4167 41.6952 20.6687 41.2939 20.846C40.9019 21.014 40.4259 21.098 39.8659 21.098C39.3059 21.098 38.8159 21.0047 38.3959 20.818C37.9759 20.622 37.6492 20.356 37.4159 20.02C37.1919 19.6747 37.0799 19.2873 37.0799 18.858C37.0799 18.186 37.3272 17.6493 37.8219 17.248C38.3259 16.8373 39.1145 16.632 40.1879 16.632H42.1199V16.52C42.1199 15.9973 41.9612 15.596 41.6439 15.316C41.3359 15.036 40.8739 14.896 40.2579 14.896C39.8379 14.896 39.4225 14.9613 39.0119 15.092C38.6105 15.2227 38.2699 15.4047 37.9899 15.638L37.3039 14.364C37.6959 14.0653 38.1672 13.8367 38.7179 13.678C39.2685 13.5193 39.8519 13.44 40.4679 13.44ZM40.2299 19.824C40.6685 19.824 41.0559 19.726 41.3919 19.53C41.7372 19.3247 41.9799 19.0353 42.1199 18.662V17.794H40.3139C39.3059 17.794 38.8019 18.1253 38.8019 18.788C38.8019 19.1053 38.9279 19.3573 39.1799 19.544C39.4319 19.7307 39.7819 19.824 40.2299 19.824ZM53.1334 18.004H51.8734V21H50.1374V18.004H48.8774L47.0574 21H44.9854L47.4354 17.136L45.1674 13.524H47.0294L48.8494 16.548H50.1374V13.524H51.8734V16.548H53.1474L54.9814 13.524H56.8434L54.5754 17.136L57.0394 21H54.9534L53.1334 18.004ZM58.3401 13.524H60.0901V16.562H63.8561V13.524H65.6061V21H63.8561V18.046H60.0901V21H58.3401V13.524ZM74.9514 17.304C74.9514 17.4253 74.9421 17.598 74.9234 17.822H69.0574C69.1601 18.3727 69.4261 18.8113 69.8554 19.138C70.2941 19.4553 70.8354 19.614 71.4794 19.614C72.3007 19.614 72.9774 19.3433 73.5094 18.802L74.4474 19.88C74.1114 20.2813 73.6867 20.5847 73.1734 20.79C72.6601 20.9953 72.0814 21.098 71.4374 21.098C70.6161 21.098 69.8927 20.9347 69.2674 20.608C68.6421 20.2813 68.1567 19.8287 67.8114 19.25C67.4754 18.662 67.3074 17.9993 67.3074 17.262C67.3074 16.534 67.4707 15.8807 67.7974 15.302C68.1334 14.714 68.5954 14.2567 69.1834 13.93C69.7714 13.6033 70.4341 13.44 71.1714 13.44C71.8994 13.44 72.5481 13.6033 73.1174 13.93C73.6961 14.2473 74.1441 14.7 74.4614 15.288C74.7881 15.8667 74.9514 16.5387 74.9514 17.304ZM71.1714 14.84C70.6114 14.84 70.1354 15.008 69.7434 15.344C69.3607 15.6707 69.1274 16.1093 69.0434 16.66H73.2854C73.2107 16.1187 72.9821 15.68 72.5994 15.344C72.2167 15.008 71.7407 14.84 71.1714 14.84ZM76.8655 13.524H78.6155V16.562H82.3815V13.524H84.1315V21H82.3815V18.046H78.6155V21H76.8655V13.524ZM86.4768 13.524H88.2268V18.452L92.3568 13.524H93.9528V21H92.2028V16.072L88.0868 21H86.4768V13.524ZM102.621 13.524V21H101.053V18.746H99.0789L97.5529 21H95.6769L97.4409 18.508C96.8995 18.3213 96.4842 18.0367 96.1949 17.654C95.9149 17.262 95.7749 16.7813 95.7749 16.212C95.7749 15.3533 96.0782 14.6907 96.6849 14.224C97.2915 13.7573 98.1269 13.524 99.1909 13.524H102.621ZM99.2469 14.994C98.1175 14.994 97.5529 15.4187 97.5529 16.268C97.5529 17.108 98.0989 17.528 99.1909 17.528H101.053V14.994H99.2469Z" fill="#333333"/>
<rect x="0.5" y="0.5" width="111" height="31" rx="15.5" stroke="#C1C5CD"/>
</svg>
