<svg width="152" height="32" viewBox="0 0 152 32" fill="none" xmlns="http://www.w3.org/2000/svg">
<path d="M17.016 11.2V21H15.21V17.304C14.286 17.6493 13.4087 17.822 12.578 17.822C11.3273 17.822 10.3613 17.5233 9.68 16.926C9.008 16.3193 8.672 15.4513 8.672 14.322V11.2H10.478V14.126C10.478 14.8167 10.6787 15.344 11.08 15.708C11.4813 16.072 12.0553 16.254 12.802 16.254C13.6513 16.254 14.454 16.0813 15.21 15.736V11.2H17.016ZM26.6226 13.524L23.1226 21.602C22.796 22.414 22.3993 22.9833 21.9326 23.31C21.466 23.646 20.9013 23.814 20.2386 23.814C19.8653 23.814 19.4966 23.7533 19.1326 23.632C18.7686 23.5107 18.47 23.3427 18.2366 23.128L18.9366 21.84C19.1046 21.9987 19.3006 22.1247 19.5246 22.218C19.758 22.3113 19.9913 22.358 20.2246 22.358C20.5326 22.358 20.7846 22.2787 20.9806 22.12C21.186 21.9613 21.3726 21.6953 21.5406 21.322L21.6666 21.028L18.4046 13.524H20.2246L22.5766 19.054L24.9426 13.524H26.6226ZM33.2561 17.108C34.1801 17.388 34.6421 17.9853 34.6421 18.9C34.6421 19.572 34.3901 20.09 33.8861 20.454C33.3821 20.818 32.6354 21 31.6461 21H27.8381V13.524H31.4921C32.4068 13.524 33.1208 13.692 33.6341 14.028C34.1474 14.364 34.4041 14.84 34.4041 15.456C34.4041 15.8387 34.3014 16.17 34.0961 16.45C33.9001 16.73 33.6201 16.9493 33.2561 17.108ZM29.5041 16.646H31.3381C32.2434 16.646 32.6961 16.3333 32.6961 15.708C32.6961 15.1013 32.2434 14.798 31.3381 14.798H29.5041V16.646ZM31.5061 19.726C32.4674 19.726 32.9481 19.4133 32.9481 18.788C32.9481 18.4613 32.8361 18.2187 32.6121 18.06C32.3881 17.892 32.0381 17.808 31.5621 17.808H29.5041V19.726H31.5061ZM39.9081 21.098C39.1334 21.098 38.4381 20.9347 37.8221 20.608C37.2061 20.2813 36.7254 19.8287 36.3801 19.25C36.0347 18.662 35.8621 17.9993 35.8621 17.262C35.8621 16.5247 36.0347 15.8667 36.3801 15.288C36.7254 14.7093 37.2014 14.2567 37.8081 13.93C38.4241 13.6033 39.1241 13.44 39.9081 13.44C40.6454 13.44 41.2894 13.5893 41.8401 13.888C42.4001 14.1867 42.8201 14.616 43.1001 15.176L41.7561 15.96C41.5414 15.6147 41.2707 15.358 40.9441 15.19C40.6267 15.0127 40.2767 14.924 39.8941 14.924C39.2407 14.924 38.6994 15.1387 38.2701 15.568C37.8407 15.988 37.6261 16.5527 37.6261 17.262C37.6261 17.9713 37.8361 18.5407 38.2561 18.97C38.6854 19.39 39.2314 19.6 39.8941 19.6C40.2767 19.6 40.6267 19.516 40.9441 19.348C41.2707 19.1707 41.5414 18.9093 41.7561 18.564L43.1001 19.348C42.8107 19.908 42.3861 20.342 41.8261 20.65C41.2754 20.9487 40.6361 21.098 39.9081 21.098ZM50.4945 15.008H47.8765V21H46.1265V15.008H43.4945V13.524H50.4945V15.008ZM57.1819 17.108C58.1059 17.388 58.5679 17.9853 58.5679 18.9C58.5679 19.572 58.3159 20.09 57.8119 20.454C57.3079 20.818 56.5612 21 55.5719 21H51.7639V13.524H55.4179C56.3326 13.524 57.0466 13.692 57.5599 14.028C58.0732 14.364 58.3299 14.84 58.3299 15.456C58.3299 15.8387 58.2272 16.17 58.0219 16.45C57.8259 16.73 57.5459 16.9493 57.1819 17.108ZM53.4299 16.646H55.2639C56.1692 16.646 56.6219 16.3333 56.6219 15.708C56.6219 15.1013 56.1692 14.798 55.2639 14.798H53.4299V16.646ZM55.4319 19.726C56.3932 19.726 56.8739 19.4133 56.8739 18.788C56.8739 18.4613 56.7619 18.2187 56.5379 18.06C56.3139 17.892 55.9639 17.808 55.4879 17.808H53.4299V19.726H55.4319ZM63.2179 13.44C64.3192 13.44 65.1592 13.706 65.7379 14.238C66.3259 14.7607 66.6199 15.554 66.6199 16.618V21H64.9679V20.09C64.7532 20.4167 64.4452 20.6687 64.0439 20.846C63.6519 21.014 63.1759 21.098 62.6159 21.098C62.0559 21.098 61.5659 21.0047 61.1459 20.818C60.7259 20.622 60.3992 20.356 60.1659 20.02C59.9419 19.6747 59.8299 19.2873 59.8299 18.858C59.8299 18.186 60.0772 17.6493 60.5719 17.248C61.0759 16.8373 61.8645 16.632 62.9379 16.632H64.8699V16.52C64.8699 15.9973 64.7112 15.596 64.3939 15.316C64.0859 15.036 63.6239 14.896 63.0079 14.896C62.5879 14.896 62.1725 14.9613 61.7619 15.092C61.3605 15.2227 61.0199 15.4047 60.7399 15.638L60.0539 14.364C60.4459 14.0653 60.9172 13.8367 61.4679 13.678C62.0185 13.5193 62.6019 13.44 63.2179 13.44ZM62.9799 19.824C63.4185 19.824 63.8059 19.726 64.1419 19.53C64.4872 19.3247 64.7299 19.0353 64.8699 18.662V17.794H63.0639C62.0559 17.794 61.5519 18.1253 61.5519 18.788C61.5519 19.1053 61.6779 19.3573 61.9299 19.544C62.1819 19.7307 62.5319 19.824 62.9799 19.824ZM72.6545 13.524H74.4045V18.452L78.5345 13.524H80.1305V21H78.3805V16.072L74.2645 21H72.6545V13.524ZM88.6777 13.412C89.4617 13.412 90.1664 13.58 90.7917 13.916C91.4171 14.2427 91.9071 14.7 92.2617 15.288C92.6164 15.8667 92.7937 16.5247 92.7937 17.262C92.7937 17.9993 92.6164 18.662 92.2617 19.25C91.9071 19.838 91.4171 20.3 90.7917 20.636C90.1664 20.9627 89.4617 21.126 88.6777 21.126C87.9964 21.126 87.3804 21.014 86.8297 20.79C86.2791 20.566 85.8124 20.244 85.4297 19.824L86.4377 18.844C87.0257 19.432 87.7491 19.726 88.6077 19.726C89.2424 19.726 89.7837 19.558 90.2317 19.222C90.6891 18.8767 90.9831 18.4193 91.1137 17.85H87.6557V16.59H91.0997C90.9597 16.0393 90.6657 15.6053 90.2177 15.288C89.7697 14.9613 89.2331 14.798 88.6077 14.798C87.7491 14.798 87.0257 15.0967 86.4377 15.694L85.4297 14.714C85.8031 14.2847 86.2651 13.9627 86.8157 13.748C87.3757 13.524 87.9964 13.412 88.6777 13.412ZM101.839 21V16.044L99.3185 20.216H98.5625L96.0845 16.03V21H94.4885V13.524H96.3225L98.9825 18.2L101.769 13.524H103.407L103.421 21H101.839ZM109.1 21.098C108.344 21.098 107.662 20.9347 107.056 20.608C106.449 20.2813 105.973 19.8287 105.628 19.25C105.292 18.662 105.124 17.9993 105.124 17.262C105.124 16.5247 105.292 15.8667 105.628 15.288C105.973 14.7093 106.449 14.2567 107.056 13.93C107.662 13.6033 108.344 13.44 109.1 13.44C109.865 13.44 110.551 13.6033 111.158 13.93C111.764 14.2567 112.236 14.7093 112.572 15.288C112.917 15.8667 113.09 16.5247 113.09 17.262C113.09 17.9993 112.917 18.662 112.572 19.25C112.236 19.8287 111.764 20.2813 111.158 20.608C110.551 20.9347 109.865 21.098 109.1 21.098ZM109.1 19.6C109.744 19.6 110.276 19.3853 110.696 18.956C111.116 18.5267 111.326 17.962 111.326 17.262C111.326 16.562 111.116 15.9973 110.696 15.568C110.276 15.1387 109.744 14.924 109.1 14.924C108.456 14.924 107.924 15.1387 107.504 15.568C107.093 15.9973 106.888 16.562 106.888 17.262C106.888 17.962 107.093 18.5267 107.504 18.956C107.924 19.3853 108.456 19.6 109.1 19.6ZM123.023 19.516V22.722H121.385V21H114.819V13.524H116.569V19.516H120.139V13.524H121.889V19.516H123.023ZM124.58 13.524H126.33V18.452L130.46 13.524H132.056V21H130.306V16.072L126.19 21H124.58V13.524ZM134.41 13.524H136.16V18.452L140.29 13.524H141.886V21H140.136V16.072L136.02 21H134.41V13.524Z" fill="#333333"/>
<rect x="0.5" y="0.5" width="151" height="31" rx="15.5" stroke="#C1C5CD"/>
</svg>
