<svg width="173" height="32" viewBox="0 0 173 32" fill="none" xmlns="http://www.w3.org/2000/svg">
<path d="M18.052 11.2V21H16.26V12.74H11.178V21H9.386V11.2H18.052ZM24.0214 21.098C23.2467 21.098 22.5514 20.9347 21.9354 20.608C21.3194 20.2813 20.8387 19.8287 20.4934 19.25C20.148 18.662 19.9754 17.9993 19.9754 17.262C19.9754 16.5247 20.148 15.8667 20.4934 15.288C20.8387 14.7093 21.3147 14.2567 21.9214 13.93C22.5374 13.6033 23.2374 13.44 24.0214 13.44C24.7587 13.44 25.4027 13.5893 25.9534 13.888C26.5134 14.1867 26.9334 14.616 27.2134 15.176L25.8694 15.96C25.6547 15.6147 25.384 15.358 25.0574 15.19C24.74 15.0127 24.39 14.924 24.0074 14.924C23.354 14.924 22.8127 15.1387 22.3834 15.568C21.954 15.988 21.7394 16.5527 21.7394 17.262C21.7394 17.9713 21.9494 18.5407 22.3694 18.97C22.7987 19.39 23.3447 19.6 24.0074 19.6C24.39 19.6 24.74 19.516 25.0574 19.348C25.384 19.1707 25.6547 18.9093 25.8694 18.564L27.2134 19.348C26.924 19.908 26.4994 20.342 25.9394 20.65C25.3887 20.9487 24.7494 21.098 24.0214 21.098ZM28.7541 13.524H30.5041V18.452L34.6341 13.524H36.2301V21H34.4801V16.072L30.3641 21H28.7541V13.524ZM43.2602 21L41.3422 18.41L39.4102 21H37.4782L40.3902 17.206L37.6042 13.524H39.5502L41.3842 15.974L43.2182 13.524H45.1082L42.3082 17.178L45.2342 21H43.2602ZM49.5725 21.098C48.8165 21.098 48.1351 20.9347 47.5285 20.608C46.9218 20.2813 46.4458 19.8287 46.1005 19.25C45.7645 18.662 45.5965 17.9993 45.5965 17.262C45.5965 16.5247 45.7645 15.8667 46.1005 15.288C46.4458 14.7093 46.9218 14.2567 47.5285 13.93C48.1351 13.6033 48.8165 13.44 49.5725 13.44C50.3378 13.44 51.0238 13.6033 51.6305 13.93C52.2371 14.2567 52.7085 14.7093 53.0445 15.288C53.3898 15.8667 53.5625 16.5247 53.5625 17.262C53.5625 17.9993 53.3898 18.662 53.0445 19.25C52.7085 19.8287 52.2371 20.2813 51.6305 20.608C51.0238 20.9347 50.3378 21.098 49.5725 21.098ZM49.5725 19.6C50.2165 19.6 50.7485 19.3853 51.1685 18.956C51.5885 18.5267 51.7985 17.962 51.7985 17.262C51.7985 16.562 51.5885 15.9973 51.1685 15.568C50.7485 15.1387 50.2165 14.924 49.5725 14.924C48.9285 14.924 48.3965 15.1387 47.9765 15.568C47.5658 15.9973 47.3605 16.562 47.3605 17.262C47.3605 17.962 47.5658 18.5267 47.9765 18.956C48.3965 19.3853 48.9285 19.6 49.5725 19.6ZM61.9852 13.524V21H60.2352V15.008H57.4352L57.3652 16.492C57.3185 17.4813 57.2252 18.312 57.0852 18.984C56.9545 19.6467 56.7259 20.174 56.3992 20.566C56.0819 20.9487 55.6432 21.14 55.0832 21.14C54.8219 21.14 54.4999 21.0887 54.1172 20.986L54.2012 19.516C54.3319 19.544 54.4439 19.558 54.5372 19.558C54.8919 19.558 55.1579 19.418 55.3352 19.138C55.5125 18.8487 55.6245 18.508 55.6712 18.116C55.7272 17.7147 55.7739 17.1453 55.8112 16.408L55.9372 13.524H61.9852ZM67.674 21.098C66.918 21.098 66.2367 20.9347 65.63 20.608C65.0233 20.2813 64.5473 19.8287 64.202 19.25C63.866 18.662 63.698 17.9993 63.698 17.262C63.698 16.5247 63.866 15.8667 64.202 15.288C64.5473 14.7093 65.0233 14.2567 65.63 13.93C66.2367 13.6033 66.918 13.44 67.674 13.44C68.4393 13.44 69.1253 13.6033 69.732 13.93C70.3387 14.2567 70.81 14.7093 71.146 15.288C71.4913 15.8667 71.664 16.5247 71.664 17.262C71.664 17.9993 71.4913 18.662 71.146 19.25C70.81 19.8287 70.3387 20.2813 69.732 20.608C69.1253 20.9347 68.4393 21.098 67.674 21.098ZM67.674 19.6C68.318 19.6 68.85 19.3853 69.27 18.956C69.69 18.5267 69.9 17.962 69.9 17.262C69.9 16.562 69.69 15.9973 69.27 15.568C68.85 15.1387 68.318 14.924 67.674 14.924C67.03 14.924 66.498 15.1387 66.078 15.568C65.6673 15.9973 65.462 16.562 65.462 17.262C65.462 17.962 65.6673 18.5267 66.078 18.956C66.498 19.3853 67.03 19.6 67.674 19.6ZM79.1328 15.008H75.1428V21H73.3928V13.524H79.1328V15.008ZM80.4065 13.524H82.1565V18.452L86.2865 13.524H87.8825V21H86.1325V16.072L82.0165 21H80.4065V13.524ZM96.5505 13.524V21H94.9825V18.746H93.0085L91.4825 21H89.6065L91.3705 18.508C90.8292 18.3213 90.4139 18.0367 90.1245 17.654C89.8445 17.262 89.7045 16.7813 89.7045 16.212C89.7045 15.3533 90.0079 14.6907 90.6145 14.224C91.2212 13.7573 92.0565 13.524 93.1205 13.524H96.5505ZM93.1765 14.994C92.0472 14.994 91.4825 15.4187 91.4825 16.268C91.4825 17.108 92.0285 17.528 93.1205 17.528H94.9825V14.994H93.1765ZM109.942 13.524V21H108.206V15.008H104.524V21H102.774V13.524H109.942ZM112.303 13.524H114.053V18.452L118.183 13.524H119.779V21H118.029V16.072L113.913 21H112.303V13.524ZM128.055 15.008H125.437V21H123.687V15.008H121.055V13.524H128.055V15.008ZM132.11 13.44C133.212 13.44 134.052 13.706 134.63 14.238C135.218 14.7607 135.512 15.554 135.512 16.618V21H133.86V20.09C133.646 20.4167 133.338 20.6687 132.936 20.846C132.544 21.014 132.068 21.098 131.508 21.098C130.948 21.098 130.458 21.0047 130.038 20.818C129.618 20.622 129.292 20.356 129.058 20.02C128.834 19.6747 128.722 19.2873 128.722 18.858C128.722 18.186 128.97 17.6493 129.464 17.248C129.968 16.8373 130.757 16.632 131.83 16.632H133.762V16.52C133.762 15.9973 133.604 15.596 133.286 15.316C132.978 15.036 132.516 14.896 131.9 14.896C131.48 14.896 131.065 14.9613 130.654 15.092C130.253 15.2227 129.912 15.4047 129.632 15.638L128.946 14.364C129.338 14.0653 129.81 13.8367 130.36 13.678C130.911 13.5193 131.494 13.44 132.11 13.44ZM131.872 19.824C132.311 19.824 132.698 19.726 133.034 19.53C133.38 19.3247 133.622 19.0353 133.762 18.662V17.794H131.956C130.948 17.794 130.444 18.1253 130.444 18.788C130.444 19.1053 130.57 19.3573 130.822 19.544C131.074 19.7307 131.424 19.824 131.872 19.824ZM137.678 13.524H139.428V16.562H143.194V13.524H144.944V21H143.194V18.046H139.428V21H137.678V13.524ZM147.289 13.524H149.039V18.452L153.169 13.524H154.765V21H153.015V16.072L148.899 21H147.289V13.524ZM163.433 13.524V21H161.865V18.746H159.891L158.365 21H156.489L158.253 18.508C157.712 18.3213 157.297 18.0367 157.007 17.654C156.727 17.262 156.587 16.7813 156.587 16.212C156.587 15.3533 156.891 14.6907 157.497 14.224C158.104 13.7573 158.939 13.524 160.003 13.524H163.433ZM160.059 14.994C158.93 14.994 158.365 15.4187 158.365 16.268C158.365 17.108 158.911 17.528 160.003 17.528H161.865V14.994H160.059Z" fill="#333333"/>
<rect x="0.5" y="0.5" width="172" height="31" rx="15.5" stroke="#C1C5CD"/>
</svg>
