<svg width="149" height="32" viewBox="0 0 149 32" fill="none" xmlns="http://www.w3.org/2000/svg">
<path d="M17.744 11.2V21H15.952V12.74H12.088L12.004 15.19C11.9573 16.562 11.8453 17.6773 11.668 18.536C11.4907 19.3853 11.206 20.034 10.814 20.482C10.422 20.9207 9.88067 21.14 9.19 21.14C8.94733 21.14 8.616 21.0933 8.196 21L8.322 19.418C8.44333 19.4553 8.58333 19.474 8.742 19.474C9.31133 19.474 9.71267 19.138 9.946 18.466C10.1887 17.7847 10.338 16.716 10.394 15.26L10.534 11.2H17.744ZM20.3049 13.524H22.0549V18.452L26.1849 13.524H27.7809V21H26.0309V16.072L21.9149 21H20.3049V13.524ZM36.477 13.524V21H34.727V18.102C34.0083 18.4473 33.257 18.62 32.473 18.62C31.5117 18.62 30.7743 18.4007 30.261 17.962C29.7477 17.514 29.491 16.8327 29.491 15.918V13.524H31.241V15.806C31.241 16.282 31.381 16.6367 31.661 16.87C31.941 17.1033 32.3377 17.22 32.851 17.22C33.5043 17.22 34.1297 17.08 34.727 16.8V13.524H36.477ZM38.8303 13.524H40.5803V16.562H44.3463V13.524H46.0963V21H44.3463V18.046H40.5803V21H38.8303V13.524ZM51.7736 21.098C51.0176 21.098 50.3363 20.9347 49.7296 20.608C49.123 20.2813 48.647 19.8287 48.3016 19.25C47.9656 18.662 47.7976 17.9993 47.7976 17.262C47.7976 16.5247 47.9656 15.8667 48.3016 15.288C48.647 14.7093 49.123 14.2567 49.7296 13.93C50.3363 13.6033 51.0176 13.44 51.7736 13.44C52.539 13.44 53.225 13.6033 53.8316 13.93C54.4383 14.2567 54.9096 14.7093 55.2456 15.288C55.591 15.8667 55.7636 16.5247 55.7636 17.262C55.7636 17.9993 55.591 18.662 55.2456 19.25C54.9096 19.8287 54.4383 20.2813 53.8316 20.608C53.225 20.9347 52.539 21.098 51.7736 21.098ZM51.7736 19.6C52.4176 19.6 52.9496 19.3853 53.3696 18.956C53.7896 18.5267 53.9996 17.962 53.9996 17.262C53.9996 16.562 53.7896 15.9973 53.3696 15.568C52.9496 15.1387 52.4176 14.924 51.7736 14.924C51.1296 14.924 50.5976 15.1387 50.1776 15.568C49.767 15.9973 49.5616 16.562 49.5616 17.262C49.5616 17.962 49.767 18.5267 50.1776 18.956C50.5976 19.3853 51.1296 19.6 51.7736 19.6ZM64.4924 17.304C64.4924 17.4253 64.4831 17.598 64.4644 17.822H58.5984C58.7011 18.3727 58.9671 18.8113 59.3964 19.138C59.8351 19.4553 60.3764 19.614 61.0204 19.614C61.8417 19.614 62.5184 19.3433 63.0504 18.802L63.9884 19.88C63.6524 20.2813 63.2277 20.5847 62.7144 20.79C62.2011 20.9953 61.6224 21.098 60.9784 21.098C60.1571 21.098 59.4337 20.9347 58.8084 20.608C58.1831 20.2813 57.6977 19.8287 57.3524 19.25C57.0164 18.662 56.8484 17.9993 56.8484 17.262C56.8484 16.534 57.0117 15.8807 57.3384 15.302C57.6744 14.714 58.1364 14.2567 58.7244 13.93C59.3124 13.6033 59.9751 13.44 60.7124 13.44C61.4404 13.44 62.0891 13.6033 62.6584 13.93C63.2371 14.2473 63.6851 14.7 64.0024 15.288C64.3291 15.8667 64.4924 16.5387 64.4924 17.304ZM60.7124 14.84C60.1524 14.84 59.6764 15.008 59.2844 15.344C58.9017 15.6707 58.6684 16.1093 58.5844 16.66H62.8264C62.7517 16.1187 62.5231 15.68 62.1404 15.344C61.7577 15.008 61.2817 14.84 60.7124 14.84ZM74.7416 17.108C75.2083 17.2387 75.5676 17.4533 75.8196 17.752C76.0809 18.0413 76.2116 18.3913 76.2116 18.802C76.2116 19.2593 76.0576 19.6653 75.7496 20.02C75.4416 20.3653 75.0169 20.636 74.4756 20.832C73.9343 21.028 73.3183 21.126 72.6276 21.126C72.0489 21.126 71.4843 21.0607 70.9336 20.93C70.3829 20.79 69.8836 20.594 69.4356 20.342L69.9396 19.04C70.3036 19.2453 70.7143 19.404 71.1716 19.516C71.6289 19.628 72.0863 19.684 72.5436 19.684C73.1316 19.684 73.5889 19.5953 73.9156 19.418C74.2516 19.2313 74.4196 18.9793 74.4196 18.662C74.4196 18.3727 74.2889 18.1487 74.0276 17.99C73.7756 17.8313 73.4163 17.752 72.9496 17.752H71.4936V16.576H72.8096C73.2483 16.576 73.5889 16.5013 73.8316 16.352C74.0836 16.2027 74.2096 15.9927 74.2096 15.722C74.2096 15.4513 74.0603 15.2367 73.7616 15.078C73.4629 14.9193 73.0523 14.84 72.5296 14.84C71.7829 14.84 70.9943 15.022 70.1636 15.386L69.7156 14.098C70.6956 13.6407 71.6849 13.412 72.6836 13.412C73.3183 13.412 73.8876 13.5007 74.3916 13.678C74.8956 13.846 75.2876 14.0887 75.5676 14.406C75.8569 14.714 76.0016 15.0687 76.0016 15.47C76.0016 15.834 75.8896 16.1607 75.6656 16.45C75.4416 16.73 75.1336 16.9493 74.7416 17.108ZM86.0076 19.516V22.666H84.3696V21H78.6016V22.666H76.9776V19.516H77.3276C77.8036 19.4973 78.1256 19.194 78.2936 18.606C78.4709 18.0087 78.5876 17.1687 78.6436 16.086L78.7416 13.524H84.9016V19.516H86.0076ZM80.2396 16.212C80.2022 17.0707 80.1322 17.7707 80.0296 18.312C79.9269 18.8533 79.7402 19.2547 79.4696 19.516H83.1516V15.008H80.2816L80.2396 16.212ZM90.9025 21.098C90.1465 21.098 89.4652 20.9347 88.8585 20.608C88.2519 20.2813 87.7759 19.8287 87.4305 19.25C87.0945 18.662 86.9265 17.9993 86.9265 17.262C86.9265 16.5247 87.0945 15.8667 87.4305 15.288C87.7759 14.7093 88.2519 14.2567 88.8585 13.93C89.4652 13.6033 90.1465 13.44 90.9025 13.44C91.6679 13.44 92.3539 13.6033 92.9605 13.93C93.5672 14.2567 94.0385 14.7093 94.3745 15.288C94.7199 15.8667 94.8925 16.5247 94.8925 17.262C94.8925 17.9993 94.7199 18.662 94.3745 19.25C94.0385 19.8287 93.5672 20.2813 92.9605 20.608C92.3539 20.9347 91.6679 21.098 90.9025 21.098ZM90.9025 19.6C91.5465 19.6 92.0785 19.3853 92.4985 18.956C92.9185 18.5267 93.1285 17.962 93.1285 17.262C93.1285 16.562 92.9185 15.9973 92.4985 15.568C92.0785 15.1387 91.5465 14.924 90.9025 14.924C90.2585 14.924 89.7265 15.1387 89.3065 15.568C88.8959 15.9973 88.6905 16.562 88.6905 17.262C88.6905 17.962 88.8959 18.5267 89.3065 18.956C89.7265 19.3853 90.2585 19.6 90.9025 19.6ZM100.765 13.44C101.493 13.44 102.142 13.5987 102.711 13.916C103.29 14.2333 103.743 14.6813 104.069 15.26C104.396 15.8387 104.559 16.506 104.559 17.262C104.559 18.018 104.396 18.69 104.069 19.278C103.743 19.8567 103.29 20.3047 102.711 20.622C102.142 20.9393 101.493 21.098 100.765 21.098C99.7573 21.098 98.9593 20.762 98.3713 20.09V23.716H96.6213V13.524H98.2873V14.504C98.5766 14.1493 98.9313 13.8833 99.3513 13.706C99.7806 13.5287 100.252 13.44 100.765 13.44ZM100.569 19.6C101.213 19.6 101.741 19.3853 102.151 18.956C102.571 18.5267 102.781 17.962 102.781 17.262C102.781 16.562 102.571 15.9973 102.151 15.568C101.741 15.1387 101.213 14.924 100.569 14.924C100.149 14.924 99.7713 15.022 99.4353 15.218C99.0993 15.4047 98.8333 15.6753 98.6373 16.03C98.4413 16.3847 98.3433 16.7953 98.3433 17.262C98.3433 17.7287 98.4413 18.1393 98.6373 18.494C98.8333 18.8487 99.0993 19.124 99.4353 19.32C99.7713 19.5067 100.149 19.6 100.569 19.6ZM109.633 21.098C108.877 21.098 108.196 20.9347 107.589 20.608C106.982 20.2813 106.506 19.8287 106.161 19.25C105.825 18.662 105.657 17.9993 105.657 17.262C105.657 16.5247 105.825 15.8667 106.161 15.288C106.506 14.7093 106.982 14.2567 107.589 13.93C108.196 13.6033 108.877 13.44 109.633 13.44C110.398 13.44 111.084 13.6033 111.691 13.93C112.298 14.2567 112.769 14.7093 113.105 15.288C113.45 15.8667 113.623 16.5247 113.623 17.262C113.623 17.9993 113.45 18.662 113.105 19.25C112.769 19.8287 112.298 20.2813 111.691 20.608C111.084 20.9347 110.398 21.098 109.633 21.098ZM109.633 19.6C110.277 19.6 110.809 19.3853 111.229 18.956C111.649 18.5267 111.859 17.962 111.859 17.262C111.859 16.562 111.649 15.9973 111.229 15.568C110.809 15.1387 110.277 14.924 109.633 14.924C108.989 14.924 108.457 15.1387 108.037 15.568C107.626 15.9973 107.421 16.562 107.421 17.262C107.421 17.962 107.626 18.5267 108.037 18.956C108.457 19.3853 108.989 19.6 109.633 19.6ZM120.77 17.108C121.694 17.388 122.156 17.9853 122.156 18.9C122.156 19.572 121.904 20.09 121.4 20.454C120.896 20.818 120.149 21 119.16 21H115.352V13.524H119.006C119.92 13.524 120.634 13.692 121.148 14.028C121.661 14.364 121.918 14.84 121.918 15.456C121.918 15.8387 121.815 16.17 121.61 16.45C121.414 16.73 121.134 16.9493 120.77 17.108ZM117.018 16.646H118.852C119.757 16.646 120.21 16.3333 120.21 15.708C120.21 15.1013 119.757 14.798 118.852 14.798H117.018V16.646ZM119.02 19.726C119.981 19.726 120.462 19.4133 120.462 18.788C120.462 18.4613 120.35 18.2187 120.126 18.06C119.902 17.892 119.552 17.808 119.076 17.808H117.018V19.726H119.02ZM127.772 15.988C128.724 15.988 129.452 16.2027 129.956 16.632C130.469 17.0613 130.726 17.668 130.726 18.452C130.726 19.2733 130.446 19.908 129.886 20.356C129.326 20.804 128.537 21.0233 127.52 21.014L124.02 21V13.524H125.77V15.974L127.772 15.988ZM127.366 19.726C127.879 19.7353 128.271 19.628 128.542 19.404C128.812 19.18 128.948 18.8533 128.948 18.424C128.948 18.004 128.817 17.696 128.556 17.5C128.294 17.304 127.898 17.2013 127.366 17.192L125.77 17.178V19.712L127.366 19.726ZM139.264 17.304C139.264 17.4253 139.255 17.598 139.236 17.822H133.37C133.473 18.3727 133.739 18.8113 134.168 19.138C134.607 19.4553 135.148 19.614 135.792 19.614C136.613 19.614 137.29 19.3433 137.822 18.802L138.76 19.88C138.424 20.2813 137.999 20.5847 137.486 20.79C136.973 20.9953 136.394 21.098 135.75 21.098C134.929 21.098 134.205 20.9347 133.58 20.608C132.955 20.2813 132.469 19.8287 132.124 19.25C131.788 18.662 131.62 17.9993 131.62 17.262C131.62 16.534 131.783 15.8807 132.11 15.302C132.446 14.714 132.908 14.2567 133.496 13.93C134.084 13.6033 134.747 13.44 135.484 13.44C136.212 13.44 136.861 13.6033 137.43 13.93C138.009 14.2473 138.457 14.7 138.774 15.288C139.101 15.8667 139.264 16.5387 139.264 17.304ZM135.484 14.84C134.924 14.84 134.448 15.008 134.056 15.344C133.673 15.6707 133.44 16.1093 133.356 16.66H137.598C137.523 16.1187 137.295 15.68 136.912 15.344C136.529 15.008 136.053 14.84 135.484 14.84Z" fill="#333333"/>
<rect x="0.5" y="0.5" width="148" height="31" rx="15.5" stroke="#C1C5CD"/>
</svg>
