<svg width="237" height="32" viewBox="0 0 237 32" fill="none" xmlns="http://www.w3.org/2000/svg">
<path d="M13.88 21.14C12.8907 21.14 11.9947 20.9253 11.192 20.496C10.3987 20.0573 9.77333 19.4553 9.316 18.69C8.868 17.9247 8.644 17.0613 8.644 16.1C8.644 15.1387 8.87267 14.2753 9.33 13.51C9.78733 12.7447 10.4127 12.1473 11.206 11.718C12.0087 11.2793 12.9047 11.06 13.894 11.06C14.6967 11.06 15.4293 11.2 16.092 11.48C16.7547 11.76 17.3147 12.166 17.772 12.698L16.596 13.804C15.8867 13.0387 15.014 12.656 13.978 12.656C13.306 12.656 12.704 12.8053 12.172 13.104C11.64 13.3933 11.2247 13.7993 10.926 14.322C10.6273 14.8447 10.478 15.4373 10.478 16.1C10.478 16.7627 10.6273 17.3553 10.926 17.878C11.2247 18.4007 11.64 18.8113 12.172 19.11C12.704 19.3993 13.306 19.544 13.978 19.544C15.014 19.544 15.8867 19.1567 16.596 18.382L17.772 19.502C17.3147 20.034 16.75 20.44 16.078 20.72C15.4153 21 14.6827 21.14 13.88 21.14ZM21.9835 13.44C23.0848 13.44 23.9248 13.706 24.5035 14.238C25.0915 14.7607 25.3855 15.554 25.3855 16.618V21H23.7335V20.09C23.5188 20.4167 23.2108 20.6687 22.8095 20.846C22.4175 21.014 21.9415 21.098 21.3815 21.098C20.8215 21.098 20.3315 21.0047 19.9115 20.818C19.4915 20.622 19.1648 20.356 18.9315 20.02C18.7075 19.6747 18.5955 19.2873 18.5955 18.858C18.5955 18.186 18.8428 17.6493 19.3375 17.248C19.8415 16.8373 20.6302 16.632 21.7035 16.632H23.6355V16.52C23.6355 15.9973 23.4768 15.596 23.1595 15.316C22.8515 15.036 22.3895 14.896 21.7735 14.896C21.3535 14.896 20.9382 14.9613 20.5275 15.092C20.1262 15.2227 19.7855 15.4047 19.5055 15.638L18.8195 14.364C19.2115 14.0653 19.6828 13.8367 20.2335 13.678C20.7842 13.5193 21.3675 13.44 21.9835 13.44ZM21.7455 19.824C22.1842 19.824 22.5715 19.726 22.9075 19.53C23.2528 19.3247 23.4955 19.0353 23.6355 18.662V17.794H21.8295C20.8215 17.794 20.3175 18.1253 20.3175 18.788C20.3175 19.1053 20.4435 19.3573 20.6955 19.544C20.9475 19.7307 21.2975 19.824 21.7455 19.824ZM34.901 21V16.044L32.381 20.216H31.625L29.147 16.03V21H27.551V13.524H29.385L32.045 18.2L34.831 13.524H36.469L36.483 21H34.901ZM42.1623 21.098C41.4063 21.098 40.725 20.9347 40.1183 20.608C39.5116 20.2813 39.0356 19.8287 38.6903 19.25C38.3543 18.662 38.1863 17.9993 38.1863 17.262C38.1863 16.5247 38.3543 15.8667 38.6903 15.288C39.0356 14.7093 39.5116 14.2567 40.1183 13.93C40.725 13.6033 41.4063 13.44 42.1623 13.44C42.9276 13.44 43.6136 13.6033 44.2203 13.93C44.827 14.2567 45.2983 14.7093 45.6343 15.288C45.9796 15.8667 46.1523 16.5247 46.1523 17.262C46.1523 17.9993 45.9796 18.662 45.6343 19.25C45.2983 19.8287 44.827 20.2813 44.2203 20.608C43.6136 20.9347 42.9276 21.098 42.1623 21.098ZM42.1623 19.6C42.8063 19.6 43.3383 19.3853 43.7583 18.956C44.1783 18.5267 44.3883 17.962 44.3883 17.262C44.3883 16.562 44.1783 15.9973 43.7583 15.568C43.3383 15.1387 42.8063 14.924 42.1623 14.924C41.5183 14.924 40.9863 15.1387 40.5663 15.568C40.1556 15.9973 39.9503 16.562 39.9503 17.262C39.9503 17.962 40.1556 18.5267 40.5663 18.956C40.9863 19.3853 41.5183 19.6 42.1623 19.6ZM51.2131 21.098C50.4571 21.098 49.7757 20.9347 49.1691 20.608C48.5624 20.2813 48.0864 19.8287 47.7411 19.25C47.4051 18.662 47.2371 17.9993 47.2371 17.262C47.2371 16.5247 47.4051 15.8667 47.7411 15.288C48.0864 14.7093 48.5624 14.2567 49.1691 13.93C49.7757 13.6033 50.4571 13.44 51.2131 13.44C51.9784 13.44 52.6644 13.6033 53.2711 13.93C53.8777 14.2567 54.3491 14.7093 54.6851 15.288C55.0304 15.8667 55.2031 16.5247 55.2031 17.262C55.2031 17.9993 55.0304 18.662 54.6851 19.25C54.3491 19.8287 53.8777 20.2813 53.2711 20.608C52.6644 20.9347 51.9784 21.098 51.2131 21.098ZM51.2131 19.6C51.8571 19.6 52.3891 19.3853 52.8091 18.956C53.2291 18.5267 53.4391 17.962 53.4391 17.262C53.4391 16.562 53.2291 15.9973 52.8091 15.568C52.3891 15.1387 51.8571 14.924 51.2131 14.924C50.5691 14.924 50.0371 15.1387 49.6171 15.568C49.2064 15.9973 49.0011 16.562 49.0011 17.262C49.0011 17.962 49.2064 18.5267 49.6171 18.956C50.0371 19.3853 50.5691 19.6 51.2131 19.6ZM65.1359 19.516V22.722H63.4979V21H56.9319V13.524H58.6819V19.516H62.2519V13.524H64.0019V19.516H65.1359ZM73.6936 17.304C73.6936 17.4253 73.6842 17.598 73.6656 17.822H67.7996C67.9022 18.3727 68.1682 18.8113 68.5976 19.138C69.0362 19.4553 69.5776 19.614 70.2216 19.614C71.0429 19.614 71.7196 19.3433 72.2516 18.802L73.1896 19.88C72.8536 20.2813 72.4289 20.5847 71.9156 20.79C71.4022 20.9953 70.8236 21.098 70.1796 21.098C69.3582 21.098 68.6349 20.9347 68.0096 20.608C67.3842 20.2813 66.8989 19.8287 66.5536 19.25C66.2176 18.662 66.0496 17.9993 66.0496 17.262C66.0496 16.534 66.2129 15.8807 66.5396 15.302C66.8756 14.714 67.3376 14.2567 67.9256 13.93C68.5136 13.6033 69.1762 13.44 69.9136 13.44C70.6416 13.44 71.2902 13.6033 71.8596 13.93C72.4382 14.2473 72.8862 14.7 73.2036 15.288C73.5302 15.8667 73.6936 16.5387 73.6936 17.304ZM69.9136 14.84C69.3536 14.84 68.8776 15.008 68.4856 15.344C68.1029 15.6707 67.8696 16.1093 67.7856 16.66H72.0276C71.9529 16.1187 71.7242 15.68 71.3416 15.344C70.9589 15.008 70.4829 14.84 69.9136 14.84ZM75.6076 13.524H77.3576V16.562H81.1236V13.524H82.8736V21H81.1236V18.046H77.3576V21H75.6076V13.524ZM88.327 18.004H86.969V21H85.219V13.524H86.969V16.548H88.369L90.581 13.524H92.457L89.741 17.122L92.639 21H90.581L88.327 18.004ZM96.5225 13.44C97.6239 13.44 98.4639 13.706 99.0425 14.238C99.6305 14.7607 99.9245 15.554 99.9245 16.618V21H98.2725V20.09C98.0579 20.4167 97.7499 20.6687 97.3485 20.846C96.9565 21.014 96.4805 21.098 95.9205 21.098C95.3605 21.098 94.8705 21.0047 94.4505 20.818C94.0305 20.622 93.7039 20.356 93.4705 20.02C93.2465 19.6747 93.1345 19.2873 93.1345 18.858C93.1345 18.186 93.3819 17.6493 93.8765 17.248C94.3805 16.8373 95.1692 16.632 96.2425 16.632H98.1745V16.52C98.1745 15.9973 98.0159 15.596 97.6985 15.316C97.3905 15.036 96.9285 14.896 96.3125 14.896C95.8925 14.896 95.4772 14.9613 95.0665 15.092C94.6652 15.2227 94.3245 15.4047 94.0445 15.638L93.3585 14.364C93.7505 14.0653 94.2219 13.8367 94.7725 13.678C95.3232 13.5193 95.9065 13.44 96.5225 13.44ZM96.2845 19.824C96.7232 19.824 97.1105 19.726 97.4465 19.53C97.7919 19.3247 98.0345 19.0353 98.1745 18.662V17.794H96.3685C95.3605 17.794 94.8565 18.1253 94.8565 18.788C94.8565 19.1053 94.9825 19.3573 95.2345 19.544C95.4865 19.7307 95.8365 19.824 96.2845 19.824ZM105.959 13.524H107.709V18.452L111.839 13.524H113.435V21H111.685V16.072L107.569 21H105.959V13.524ZM123.06 21.098C122.286 21.098 121.59 20.9347 120.974 20.608C120.358 20.2813 119.878 19.8287 119.532 19.25C119.187 18.662 119.014 17.9993 119.014 17.262C119.014 16.5247 119.187 15.8667 119.532 15.288C119.878 14.7093 120.354 14.2567 120.96 13.93C121.576 13.6033 122.276 13.44 123.06 13.44C123.798 13.44 124.442 13.5893 124.992 13.888C125.552 14.1867 125.972 14.616 126.252 15.176L124.908 15.96C124.694 15.6147 124.423 15.358 124.096 15.19C123.779 15.0127 123.429 14.924 123.046 14.924C122.393 14.924 121.852 15.1387 121.422 15.568C120.993 15.988 120.778 16.5527 120.778 17.262C120.778 17.9713 120.988 18.5407 121.408 18.97C121.838 19.39 122.384 19.6 123.046 19.6C123.429 19.6 123.779 19.516 124.096 19.348C124.423 19.1707 124.694 18.9093 124.908 18.564L126.252 19.348C125.963 19.908 125.538 20.342 124.978 20.65C124.428 20.9487 123.788 21.098 123.06 21.098ZM130.579 13.44C131.681 13.44 132.521 13.706 133.099 14.238C133.687 14.7607 133.981 15.554 133.981 16.618V21H132.329V20.09C132.115 20.4167 131.807 20.6687 131.405 20.846C131.013 21.014 130.537 21.098 129.977 21.098C129.417 21.098 128.927 21.0047 128.507 20.818C128.087 20.622 127.761 20.356 127.527 20.02C127.303 19.6747 127.191 19.2873 127.191 18.858C127.191 18.186 127.439 17.6493 127.933 17.248C128.437 16.8373 129.226 16.632 130.299 16.632H132.231V16.52C132.231 15.9973 132.073 15.596 131.755 15.316C131.447 15.036 130.985 14.896 130.369 14.896C129.949 14.896 129.534 14.9613 129.123 15.092C128.722 15.2227 128.381 15.4047 128.101 15.638L127.415 14.364C127.807 14.0653 128.279 13.8367 128.829 13.678C129.38 13.5193 129.963 13.44 130.579 13.44ZM130.341 19.824C130.78 19.824 131.167 19.726 131.503 19.53C131.849 19.3247 132.091 19.0353 132.231 18.662V17.794H130.425C129.417 17.794 128.913 18.1253 128.913 18.788C128.913 19.1053 129.039 19.3573 129.291 19.544C129.543 19.7307 129.893 19.824 130.341 19.824ZM143.497 21V16.044L140.977 20.216H140.221L137.743 16.03V21H136.147V13.524H137.981L140.641 18.2L143.427 13.524H145.065L145.079 21H143.497ZM150.758 21.098C150.002 21.098 149.321 20.9347 148.714 20.608C148.107 20.2813 147.631 19.8287 147.286 19.25C146.95 18.662 146.782 17.9993 146.782 17.262C146.782 16.5247 146.95 15.8667 147.286 15.288C147.631 14.7093 148.107 14.2567 148.714 13.93C149.321 13.6033 150.002 13.44 150.758 13.44C151.523 13.44 152.209 13.6033 152.816 13.93C153.423 14.2567 153.894 14.7093 154.23 15.288C154.575 15.8667 154.748 16.5247 154.748 17.262C154.748 17.9993 154.575 18.662 154.23 19.25C153.894 19.8287 153.423 20.2813 152.816 20.608C152.209 20.9347 151.523 21.098 150.758 21.098ZM150.758 19.6C151.402 19.6 151.934 19.3853 152.354 18.956C152.774 18.5267 152.984 17.962 152.984 17.262C152.984 16.562 152.774 15.9973 152.354 15.568C151.934 15.1387 151.402 14.924 150.758 14.924C150.114 14.924 149.582 15.1387 149.162 15.568C148.751 15.9973 148.546 16.562 148.546 17.262C148.546 17.962 148.751 18.5267 149.162 18.956C149.582 19.3853 150.114 19.6 150.758 19.6ZM163.645 13.524V21H161.909V15.008H158.227V21H156.477V13.524H163.645ZM170.15 13.44C170.878 13.44 171.527 13.5987 172.096 13.916C172.675 14.2333 173.127 14.6813 173.454 15.26C173.781 15.8387 173.944 16.506 173.944 17.262C173.944 18.018 173.781 18.69 173.454 19.278C173.127 19.8567 172.675 20.3047 172.096 20.622C171.527 20.9393 170.878 21.098 170.15 21.098C169.142 21.098 168.344 20.762 167.756 20.09V23.716H166.006V13.524H167.672V14.504C167.961 14.1493 168.316 13.8833 168.736 13.706C169.165 13.5287 169.637 13.44 170.15 13.44ZM169.954 19.6C170.598 19.6 171.125 19.3853 171.536 18.956C171.956 18.5267 172.166 17.962 172.166 17.262C172.166 16.562 171.956 15.9973 171.536 15.568C171.125 15.1387 170.598 14.924 169.954 14.924C169.534 14.924 169.156 15.022 168.82 15.218C168.484 15.4047 168.218 15.6753 168.022 16.03C167.826 16.3847 167.728 16.7953 167.728 17.262C167.728 17.7287 167.826 18.1393 168.022 18.494C168.218 18.8487 168.484 19.124 168.82 19.32C169.156 19.5067 169.534 19.6 169.954 19.6ZM175.686 13.524H177.436V18.452L181.566 13.524H183.162V21H181.412V16.072L177.296 21H175.686V13.524ZM185.516 13.524H187.266V16.562H191.032V13.524H192.782V21H191.032V18.046H187.266V21H185.516V13.524ZM201.441 13.524V21H199.873V18.746H197.899L196.373 21H194.497L196.261 18.508C195.72 18.3213 195.305 18.0367 195.015 17.654C194.735 17.262 194.595 16.7813 194.595 16.212C194.595 15.3533 194.899 14.6907 195.505 14.224C196.112 13.7573 196.947 13.524 198.011 13.524H201.441ZM198.067 14.994C196.938 14.994 196.373 15.4187 196.373 16.268C196.373 17.108 196.919 17.528 198.011 17.528H199.873V14.994H198.067ZM209.717 15.008H207.099V21H205.349V15.008H202.717V13.524H209.717V15.008ZM210.987 13.524H212.737V18.452L216.867 13.524H218.463V21H216.713V16.072L212.597 21H210.987V13.524ZM227.817 17.304C227.817 17.4253 227.807 17.598 227.789 17.822H221.923C222.025 18.3727 222.291 18.8113 222.721 19.138C223.159 19.4553 223.701 19.614 224.345 19.614C225.166 19.614 225.843 19.3433 226.375 18.802L227.313 19.88C226.977 20.2813 226.552 20.5847 226.039 20.79C225.525 20.9953 224.947 21.098 224.303 21.098C223.481 21.098 222.758 20.9347 222.133 20.608C221.507 20.2813 221.022 19.8287 220.677 19.25C220.341 18.662 220.173 17.9993 220.173 17.262C220.173 16.534 220.336 15.8807 220.663 15.302C220.999 14.714 221.461 14.2567 222.049 13.93C222.637 13.6033 223.299 13.44 224.037 13.44C224.765 13.44 225.413 13.6033 225.983 13.93C226.561 14.2473 227.009 14.7 227.327 15.288C227.653 15.8667 227.817 16.5387 227.817 17.304ZM224.037 14.84C223.477 14.84 223.001 15.008 222.609 15.344C222.226 15.6707 221.993 16.1093 221.909 16.66H226.151C226.076 16.1187 225.847 15.68 225.465 15.344C225.082 15.008 224.606 14.84 224.037 14.84Z" fill="#333333"/>
<rect x="0.5" y="0.5" width="236" height="31" rx="15.5" stroke="#C1C5CD"/>
</svg>
