<svg width="82" height="32" viewBox="0 0 82 32" fill="none" xmlns="http://www.w3.org/2000/svg">
<path d="M18.08 11.2V21H16.26V16.8H11.192V21H9.372V11.2H11.192V15.246H16.26V11.2H18.08ZM23.419 13.44C24.5204 13.44 25.3604 13.706 25.939 14.238C26.527 14.7607 26.821 15.554 26.821 16.618V21H25.169V20.09C24.9544 20.4167 24.6464 20.6687 24.245 20.846C23.853 21.014 23.377 21.098 22.817 21.098C22.257 21.098 21.767 21.0047 21.347 20.818C20.927 20.622 20.6004 20.356 20.367 20.02C20.143 19.6747 20.031 19.2873 20.031 18.858C20.031 18.186 20.2784 17.6493 20.773 17.248C21.277 16.8373 22.0657 16.632 23.139 16.632H25.071V16.52C25.071 15.9973 24.9124 15.596 24.595 15.316C24.287 15.036 23.825 14.896 23.209 14.896C22.789 14.896 22.3737 14.9613 21.963 15.092C21.5617 15.2227 21.221 15.4047 20.941 15.638L20.255 14.364C20.647 14.0653 21.1184 13.8367 21.669 13.678C22.2197 13.5193 22.803 13.44 23.419 13.44ZM23.181 19.824C23.6197 19.824 24.007 19.726 24.343 19.53C24.6884 19.3247 24.931 19.0353 25.071 18.662V17.794H23.265C22.257 17.794 21.753 18.1253 21.753 18.788C21.753 19.1053 21.879 19.3573 22.131 19.544C22.383 19.7307 22.733 19.824 23.181 19.824ZM32.3885 21.098C31.6139 21.098 30.9185 20.9347 30.3025 20.608C29.6865 20.2813 29.2059 19.8287 28.8605 19.25C28.5152 18.662 28.3425 17.9993 28.3425 17.262C28.3425 16.5247 28.5152 15.8667 28.8605 15.288C29.2059 14.7093 29.6819 14.2567 30.2885 13.93C30.9045 13.6033 31.6045 13.44 32.3885 13.44C33.1259 13.44 33.7699 13.5893 34.3205 13.888C34.8805 14.1867 35.3005 14.616 35.5805 15.176L34.2365 15.96C34.0219 15.6147 33.7512 15.358 33.4245 15.19C33.1072 15.0127 32.7572 14.924 32.3745 14.924C31.7212 14.924 31.1799 15.1387 30.7505 15.568C30.3212 15.988 30.1065 16.5527 30.1065 17.262C30.1065 17.9713 30.3165 18.5407 30.7365 18.97C31.1659 19.39 31.7119 19.6 32.3745 19.6C32.7572 19.6 33.1072 19.516 33.4245 19.348C33.7512 19.1707 34.0219 18.9093 34.2365 18.564L35.5805 19.348C35.2912 19.908 34.8665 20.342 34.3065 20.65C33.7559 20.9487 33.1165 21.098 32.3885 21.098ZM37.1213 13.524H38.8713V18.452L43.0013 13.524H44.5973V21H42.8473V16.072L38.7313 21H37.1213V13.524ZM53.7274 13.524V21H51.9774V15.008H49.1774L49.1074 16.492C49.0607 17.4813 48.9674 18.312 48.8274 18.984C48.6967 19.6467 48.4681 20.174 48.1414 20.566C47.8241 20.9487 47.3854 21.14 46.8254 21.14C46.5641 21.14 46.2421 21.0887 45.8594 20.986L45.9434 19.516C46.0741 19.544 46.1861 19.558 46.2794 19.558C46.6341 19.558 46.9001 19.418 47.0774 19.138C47.2547 18.8487 47.3667 18.508 47.4134 18.116C47.4694 17.7147 47.5161 17.1453 47.5534 16.408L47.6794 13.524H53.7274ZM56.0842 13.524H57.8342V18.452L61.9642 13.524H63.5602V21H61.8102V16.072L57.6942 21H56.0842V13.524ZM72.9143 17.304C72.9143 17.4253 72.9049 17.598 72.8863 17.822H67.0203C67.1229 18.3727 67.3889 18.8113 67.8183 19.138C68.2569 19.4553 68.7983 19.614 69.4423 19.614C70.2636 19.614 70.9403 19.3433 71.4723 18.802L72.4103 19.88C72.0743 20.2813 71.6496 20.5847 71.1363 20.79C70.6229 20.9953 70.0443 21.098 69.4003 21.098C68.5789 21.098 67.8556 20.9347 67.2303 20.608C66.6049 20.2813 66.1196 19.8287 65.7743 19.25C65.4383 18.662 65.2703 17.9993 65.2703 17.262C65.2703 16.534 65.4336 15.8807 65.7603 15.302C66.0963 14.714 66.5583 14.2567 67.1463 13.93C67.7343 13.6033 68.3969 13.44 69.1343 13.44C69.8623 13.44 70.5109 13.6033 71.0803 13.93C71.6589 14.2473 72.1069 14.7 72.4243 15.288C72.7509 15.8667 72.9143 16.5387 72.9143 17.304ZM69.1343 14.84C68.5743 14.84 68.0983 15.008 67.7063 15.344C67.3236 15.6707 67.0903 16.1093 67.0063 16.66H71.2483C71.1736 16.1187 70.9449 15.68 70.5623 15.344C70.1796 15.008 69.7036 14.84 69.1343 14.84Z" fill="#333333"/>
<rect x="0.5" y="0.5" width="81" height="31" rx="15.5" stroke="#C1C5CD"/>
</svg>
